@startuml

hide empty fields
hide empty methods
legend
|= |= line |
|<back:black>   </back>| inheritance |
|<back:green>   </back>| property reference |
|<back:blue>   </back>| discriminated class |
endlegend
interface CustomerGroupReference [[CustomerGroupReference.svg]] extends Reference {
    typeId: [[ReferenceTypeId.svg ReferenceTypeId]]
    id: String
    obj: [[CustomerGroup.svg CustomerGroup]]
}
interface Reference [[Reference.svg]]  {
    typeId: [[ReferenceTypeId.svg ReferenceTypeId]]
    id: String
}


interface Cart [[Cart.svg]]  {
    id: String
    version: Long
    createdAt: DateTime
    lastModifiedAt: DateTime
    key: String
    customerId: String
    customerEmail: String
    customerGroup: [[CustomerGroupReference.svg CustomerGroupReference]]
    anonymousId: String
    businessUnit: [[BusinessUnitKeyReference.svg BusinessUnitKeyReference]]
    store: [[StoreKeyReference.svg StoreKeyReference]]
    lineItems: [[LineItem.svg List<LineItem>]]
    customLineItems: [[CustomLineItem.svg List<CustomLineItem>]]
    totalLineItemQuantity: Long
    totalPrice: [[CentPrecisionMoney.svg CentPrecisionMoney]]
    taxedPrice: [[TaxedPrice.svg TaxedPrice]]
    taxedShippingPrice: [[TaxedPrice.svg TaxedPrice]]
    discountOnTotalPrice: [[DiscountOnTotalPrice.svg DiscountOnTotalPrice]]
    taxMode: [[TaxMode.svg TaxMode]]
    taxRoundingMode: [[RoundingMode.svg RoundingMode]]
    taxCalculationMode: [[TaxCalculationMode.svg TaxCalculationMode]]
    inventoryMode: [[InventoryMode.svg InventoryMode]]
    cartState: [[CartState.svg CartState]]
    billingAddress: [[Address.svg Address]]
    shippingAddress: [[Address.svg Address]]
    shippingMode: [[ShippingMode.svg ShippingMode]]
    shippingKey: String
    shippingInfo: [[ShippingInfo.svg ShippingInfo]]
    shippingRateInput: [[ShippingRateInput.svg ShippingRateInput]]
    shippingCustomFields: [[CustomFields.svg CustomFields]]
    shipping: [[Shipping.svg List<Shipping>]]
    itemShippingAddresses: [[Address.svg List<Address>]]
    discountCodes: [[DiscountCodeInfo.svg List<DiscountCodeInfo>]]
    directDiscounts: [[DirectDiscount.svg List<DirectDiscount>]]
    refusedGifts: [[CartDiscountReference.svg List<CartDiscountReference>]]
    paymentInfo: [[PaymentInfo.svg PaymentInfo]]
    country: String
    locale: String
    origin: [[CartOrigin.svg CartOrigin]]
    custom: [[CustomFields.svg CustomFields]]
    deleteDaysAfterLastModification: Integer
    lastModifiedBy: [[LastModifiedBy.svg LastModifiedBy]]
    createdBy: [[CreatedBy.svg CreatedBy]]
}
interface Price [[Price.svg]]  {
    id: String
    key: String
    value: [[TypedMoney.svg TypedMoney]]
    country: String
    customerGroup: [[CustomerGroupReference.svg CustomerGroupReference]]
    channel: [[ChannelReference.svg ChannelReference]]
    validFrom: DateTime
    validUntil: DateTime
    discounted: [[DiscountedPrice.svg DiscountedPrice]]
    tiers: [[PriceTier.svg List<PriceTier>]]
    custom: [[CustomFields.svg CustomFields]]
}
interface QueryPrice [[QueryPrice.svg]]  {
    id: String
    value: [[Money.svg Money]]
    country: String
    customerGroup: [[CustomerGroupReference.svg CustomerGroupReference]]
    channel: [[ChannelReference.svg ChannelReference]]
    validFrom: DateTime
    validUntil: DateTime
    discounted: [[DiscountedPriceDraft.svg DiscountedPriceDraft]]
    custom: [[CustomFields.svg CustomFields]]
    tiers: [[PriceTierDraft.svg List<PriceTierDraft>]]
}
interface ScopedPrice [[ScopedPrice.svg]]  {
    id: String
    value: [[TypedMoney.svg TypedMoney]]
    currentValue: [[TypedMoney.svg TypedMoney]]
    country: String
    customerGroup: [[CustomerGroupReference.svg CustomerGroupReference]]
    channel: [[ChannelReference.svg ChannelReference]]
    validFrom: DateTime
    validUntil: DateTime
    discounted: [[DiscountedPrice.svg DiscountedPrice]]
    custom: [[CustomFields.svg CustomFields]]
}
interface Customer [[Customer.svg]]  {
    id: String
    version: Long
    createdAt: DateTime
    lastModifiedAt: DateTime
    key: String
    customerNumber: String
    externalId: String
    lastModifiedBy: [[LastModifiedBy.svg LastModifiedBy]]
    createdBy: [[CreatedBy.svg CreatedBy]]
    email: String
    password: String
    firstName: String
    lastName: String
    middleName: String
    title: String
    dateOfBirth: Date
    companyName: String
    vatId: String
    addresses: [[Address.svg List<Address>]]
    defaultShippingAddressId: String
    shippingAddressIds: [[String.svg List<String>]]
    defaultBillingAddressId: String
    billingAddressIds: [[String.svg List<String>]]
    isEmailVerified: Boolean
    customerGroup: [[CustomerGroupReference.svg CustomerGroupReference]]
    custom: [[CustomFields.svg CustomFields]]
    locale: String
    salutation: String
    stores: [[StoreKeyReference.svg List<StoreKeyReference>]]
    authenticationMode: [[AuthenticationMode.svg AuthenticationMode]]
    customerGroupAssignments: [[CustomerGroupAssignment.svg List<CustomerGroupAssignment>]]
}
interface CustomerGroupAssignment [[CustomerGroupAssignment.svg]]  {
    customerGroup: [[CustomerGroupReference.svg CustomerGroupReference]]
}
interface MatchingPriceNotFoundError [[MatchingPriceNotFoundError.svg]]  {
    code: String
    message: String
    productId: String
    variantId: Integer
    currency: String
    country: String
    customerGroup: [[CustomerGroupReference.svg CustomerGroupReference]]
    channel: [[ChannelReference.svg ChannelReference]]
}
interface GraphQLMatchingPriceNotFoundError [[GraphQLMatchingPriceNotFoundError.svg]]  {
    code: String
    productId: String
    variantId: Integer
    currency: String
    country: String
    customerGroup: [[CustomerGroupReference.svg CustomerGroupReference]]
    channel: [[ChannelReference.svg ChannelReference]]
}
interface CustomerGroupAssignmentRemovedMessage [[CustomerGroupAssignmentRemovedMessage.svg]]  {
    id: String
    version: Long
    createdAt: DateTime
    lastModifiedAt: DateTime
    lastModifiedBy: [[LastModifiedBy.svg LastModifiedBy]]
    createdBy: [[CreatedBy.svg CreatedBy]]
    sequenceNumber: Long
    resource: [[Reference.svg Reference]]
    resourceVersion: Long
    type: String
    resourceUserProvidedIdentifiers: [[UserProvidedIdentifiers.svg UserProvidedIdentifiers]]
    customerGroupAssignment: [[CustomerGroupReference.svg CustomerGroupReference]]
}
interface CustomerGroupSetMessage [[CustomerGroupSetMessage.svg]]  {
    id: String
    version: Long
    createdAt: DateTime
    lastModifiedAt: DateTime
    lastModifiedBy: [[LastModifiedBy.svg LastModifiedBy]]
    createdBy: [[CreatedBy.svg CreatedBy]]
    sequenceNumber: Long
    resource: [[Reference.svg Reference]]
    resourceVersion: Long
    type: String
    resourceUserProvidedIdentifiers: [[UserProvidedIdentifiers.svg UserProvidedIdentifiers]]
    customerGroup: [[CustomerGroupReference.svg CustomerGroupReference]]
}
interface OrderCustomerGroupSetMessage [[OrderCustomerGroupSetMessage.svg]]  {
    id: String
    version: Long
    createdAt: DateTime
    lastModifiedAt: DateTime
    lastModifiedBy: [[LastModifiedBy.svg LastModifiedBy]]
    createdBy: [[CreatedBy.svg CreatedBy]]
    sequenceNumber: Long
    resource: [[Reference.svg Reference]]
    resourceVersion: Long
    type: String
    resourceUserProvidedIdentifiers: [[UserProvidedIdentifiers.svg UserProvidedIdentifiers]]
    customerGroup: [[CustomerGroupReference.svg CustomerGroupReference]]
    oldCustomerGroup: [[CustomerGroupReference.svg CustomerGroupReference]]
}
interface OrderCustomerSetMessage [[OrderCustomerSetMessage.svg]]  {
    id: String
    version: Long
    createdAt: DateTime
    lastModifiedAt: DateTime
    lastModifiedBy: [[LastModifiedBy.svg LastModifiedBy]]
    createdBy: [[CreatedBy.svg CreatedBy]]
    sequenceNumber: Long
    resource: [[Reference.svg Reference]]
    resourceVersion: Long
    type: String
    resourceUserProvidedIdentifiers: [[UserProvidedIdentifiers.svg UserProvidedIdentifiers]]
    customer: [[CustomerReference.svg CustomerReference]]
    customerGroup: [[CustomerGroupReference.svg CustomerGroupReference]]
    oldCustomer: [[CustomerReference.svg CustomerReference]]
    oldCustomerGroup: [[CustomerGroupReference.svg CustomerGroupReference]]
}
interface CustomerGroupAssignmentRemovedMessagePayload [[CustomerGroupAssignmentRemovedMessagePayload.svg]]  {
    type: String
    customerGroupAssignment: [[CustomerGroupReference.svg CustomerGroupReference]]
}
interface CustomerGroupSetMessagePayload [[CustomerGroupSetMessagePayload.svg]]  {
    type: String
    customerGroup: [[CustomerGroupReference.svg CustomerGroupReference]]
}
interface OrderCustomerGroupSetMessagePayload [[OrderCustomerGroupSetMessagePayload.svg]]  {
    type: String
    customerGroup: [[CustomerGroupReference.svg CustomerGroupReference]]
    oldCustomerGroup: [[CustomerGroupReference.svg CustomerGroupReference]]
}
interface OrderCustomerSetMessagePayload [[OrderCustomerSetMessagePayload.svg]]  {
    type: String
    customer: [[CustomerReference.svg CustomerReference]]
    customerGroup: [[CustomerGroupReference.svg CustomerGroupReference]]
    oldCustomer: [[CustomerReference.svg CustomerReference]]
    oldCustomerGroup: [[CustomerGroupReference.svg CustomerGroupReference]]
}
interface Order [[Order.svg]]  {
    id: String
    version: Long
    createdAt: DateTime
    lastModifiedAt: DateTime
    orderNumber: String
    purchaseOrderNumber: String
    customerId: String
    customerEmail: String
    customerGroup: [[CustomerGroupReference.svg CustomerGroupReference]]
    anonymousId: String
    businessUnit: [[BusinessUnitKeyReference.svg BusinessUnitKeyReference]]
    store: [[StoreKeyReference.svg StoreKeyReference]]
    lineItems: [[LineItem.svg List<LineItem>]]
    customLineItems: [[CustomLineItem.svg List<CustomLineItem>]]
    totalPrice: [[TypedMoney.svg TypedMoney]]
    taxedPrice: [[TaxedPrice.svg TaxedPrice]]
    taxedShippingPrice: [[TaxedPrice.svg TaxedPrice]]
    discountOnTotalPrice: [[DiscountOnTotalPrice.svg DiscountOnTotalPrice]]
    taxMode: [[TaxMode.svg TaxMode]]
    taxRoundingMode: [[RoundingMode.svg RoundingMode]]
    taxCalculationMode: [[TaxCalculationMode.svg TaxCalculationMode]]
    inventoryMode: [[InventoryMode.svg InventoryMode]]
    billingAddress: [[Address.svg Address]]
    shippingAddress: [[Address.svg Address]]
    shippingMode: [[ShippingMode.svg ShippingMode]]
    shippingKey: String
    shippingInfo: [[ShippingInfo.svg ShippingInfo]]
    shippingRateInput: [[ShippingRateInput.svg ShippingRateInput]]
    shippingCustomFields: [[CustomFields.svg CustomFields]]
    shipping: [[Shipping.svg List<Shipping>]]
    itemShippingAddresses: [[Address.svg List<Address>]]
    discountCodes: [[DiscountCodeInfo.svg List<DiscountCodeInfo>]]
    directDiscounts: [[DirectDiscount.svg List<DirectDiscount>]]
    refusedGifts: [[CartDiscountReference.svg List<CartDiscountReference>]]
    paymentInfo: [[PaymentInfo.svg PaymentInfo]]
    country: String
    locale: String
    origin: [[CartOrigin.svg CartOrigin]]
    cart: [[CartReference.svg CartReference]]
    quote: [[QuoteReference.svg QuoteReference]]
    orderState: [[OrderState.svg OrderState]]
    shipmentState: [[ShipmentState.svg ShipmentState]]
    paymentState: [[PaymentState.svg PaymentState]]
    state: [[StateReference.svg StateReference]]
    syncInfo: [[SyncInfo.svg List<SyncInfo>]]
    returnInfo: [[ReturnInfo.svg List<ReturnInfo>]]
    lastMessageSequenceNumber: Long
    custom: [[CustomFields.svg CustomFields]]
    completedAt: DateTime
    lastModifiedBy: [[LastModifiedBy.svg LastModifiedBy]]
    createdBy: [[CreatedBy.svg CreatedBy]]
}
interface QuoteRequest [[QuoteRequest.svg]]  {
    id: String
    version: Long
    createdAt: DateTime
    lastModifiedAt: DateTime
    key: String
    lastModifiedBy: [[LastModifiedBy.svg LastModifiedBy]]
    createdBy: [[CreatedBy.svg CreatedBy]]
    quoteRequestState: [[QuoteRequestState.svg QuoteRequestState]]
    comment: String
    customer: [[CustomerReference.svg CustomerReference]]
    customerGroup: [[CustomerGroupReference.svg CustomerGroupReference]]
    store: [[StoreKeyReference.svg StoreKeyReference]]
    lineItems: [[LineItem.svg List<LineItem>]]
    customLineItems: [[CustomLineItem.svg List<CustomLineItem>]]
    totalPrice: [[TypedMoney.svg TypedMoney]]
    taxedPrice: [[TaxedPrice.svg TaxedPrice]]
    shippingAddress: [[Address.svg Address]]
    billingAddress: [[Address.svg Address]]
    inventoryMode: [[InventoryMode.svg InventoryMode]]
    taxMode: [[TaxMode.svg TaxMode]]
    taxRoundingMode: [[RoundingMode.svg RoundingMode]]
    taxCalculationMode: [[TaxCalculationMode.svg TaxCalculationMode]]
    country: String
    shippingInfo: [[ShippingInfo.svg ShippingInfo]]
    paymentInfo: [[PaymentInfo.svg PaymentInfo]]
    shippingRateInput: [[ShippingRateInput.svg ShippingRateInput]]
    itemShippingAddresses: [[Address.svg List<Address>]]
    directDiscounts: [[DirectDiscount.svg List<DirectDiscount>]]
    custom: [[CustomFields.svg CustomFields]]
    state: [[StateReference.svg StateReference]]
    purchaseOrderNumber: String
    cart: [[CartReference.svg CartReference]]
    businessUnit: [[BusinessUnitKeyReference.svg BusinessUnitKeyReference]]
}
interface Quote [[Quote.svg]]  {
    id: String
    version: Long
    createdAt: DateTime
    lastModifiedAt: DateTime
    key: String
    lastModifiedBy: [[LastModifiedBy.svg LastModifiedBy]]
    createdBy: [[CreatedBy.svg CreatedBy]]
    quoteRequest: [[QuoteRequestReference.svg QuoteRequestReference]]
    stagedQuote: [[StagedQuoteReference.svg StagedQuoteReference]]
    customer: [[CustomerReference.svg CustomerReference]]
    customerGroup: [[CustomerGroupReference.svg CustomerGroupReference]]
    validTo: DateTime
    sellerComment: String
    buyerComment: String
    store: [[StoreKeyReference.svg StoreKeyReference]]
    lineItems: [[LineItem.svg List<LineItem>]]
    customLineItems: [[CustomLineItem.svg List<CustomLineItem>]]
    totalPrice: [[TypedMoney.svg TypedMoney]]
    taxedPrice: [[TaxedPrice.svg TaxedPrice]]
    shippingAddress: [[Address.svg Address]]
    billingAddress: [[Address.svg Address]]
    inventoryMode: [[InventoryMode.svg InventoryMode]]
    taxMode: [[TaxMode.svg TaxMode]]
    taxRoundingMode: [[RoundingMode.svg RoundingMode]]
    taxCalculationMode: [[TaxCalculationMode.svg TaxCalculationMode]]
    country: String
    shippingInfo: [[ShippingInfo.svg ShippingInfo]]
    paymentInfo: [[PaymentInfo.svg PaymentInfo]]
    shippingRateInput: [[ShippingRateInput.svg ShippingRateInput]]
    itemShippingAddresses: [[Address.svg List<Address>]]
    directDiscounts: [[DirectDiscount.svg List<DirectDiscount>]]
    custom: [[CustomFields.svg CustomFields]]
    quoteState: [[QuoteState.svg QuoteState]]
    state: [[StateReference.svg StateReference]]
    purchaseOrderNumber: String
    businessUnit: [[BusinessUnitKeyReference.svg BusinessUnitKeyReference]]
}
interface StandalonePrice [[StandalonePrice.svg]]  {
    id: String
    version: Long
    createdAt: DateTime
    lastModifiedAt: DateTime
    lastModifiedBy: [[LastModifiedBy.svg LastModifiedBy]]
    createdBy: [[CreatedBy.svg CreatedBy]]
    key: String
    sku: String
    value: [[TypedMoney.svg TypedMoney]]
    country: String
    customerGroup: [[CustomerGroupReference.svg CustomerGroupReference]]
    channel: [[ChannelReference.svg ChannelReference]]
    validFrom: DateTime
    validUntil: DateTime
    tiers: [[PriceTier.svg List<PriceTier>]]
    discounted: [[DiscountedPrice.svg DiscountedPrice]]
    custom: [[CustomFields.svg CustomFields]]
    staged: [[StagedStandalonePrice.svg StagedStandalonePrice]]
    active: Boolean
}

CustomerGroupReference --> Cart #green;text:green : "customerGroup"
CustomerGroupReference --> Price #green;text:green : "customerGroup"
CustomerGroupReference --> QueryPrice #green;text:green : "customerGroup"
CustomerGroupReference --> ScopedPrice #green;text:green : "customerGroup"
CustomerGroupReference --> Customer #green;text:green : "customerGroup"
CustomerGroupReference --> CustomerGroupAssignment #green;text:green : "customerGroup"
CustomerGroupReference --> MatchingPriceNotFoundError #green;text:green : "customerGroup"
CustomerGroupReference --> GraphQLMatchingPriceNotFoundError #green;text:green : "customerGroup"
CustomerGroupReference --> CustomerGroupAssignmentRemovedMessage #green;text:green : "customerGroupAssignment"
CustomerGroupReference --> CustomerGroupSetMessage #green;text:green : "customerGroup"
CustomerGroupReference --> OrderCustomerGroupSetMessage #green;text:green : "customerGroup"
CustomerGroupReference --> OrderCustomerGroupSetMessage #green;text:green : "oldCustomerGroup"
CustomerGroupReference --> OrderCustomerSetMessage #green;text:green : "customerGroup"
CustomerGroupReference --> OrderCustomerSetMessage #green;text:green : "oldCustomerGroup"
CustomerGroupReference --> CustomerGroupAssignmentRemovedMessagePayload #green;text:green : "customerGroupAssignment"
CustomerGroupReference --> CustomerGroupSetMessagePayload #green;text:green : "customerGroup"
CustomerGroupReference --> OrderCustomerGroupSetMessagePayload #green;text:green : "customerGroup"
CustomerGroupReference --> OrderCustomerGroupSetMessagePayload #green;text:green : "oldCustomerGroup"
CustomerGroupReference --> OrderCustomerSetMessagePayload #green;text:green : "customerGroup"
CustomerGroupReference --> OrderCustomerSetMessagePayload #green;text:green : "oldCustomerGroup"
CustomerGroupReference --> Order #green;text:green : "customerGroup"
CustomerGroupReference --> QuoteRequest #green;text:green : "customerGroup"
CustomerGroupReference --> Quote #green;text:green : "customerGroup"
CustomerGroupReference --> StandalonePrice #green;text:green : "customerGroup"
@enduml
